<svg width="65" height="18" viewBox="0 0 65 18" fill="none" xmlns="http://www.w3.org/2000/svg">
<path d="M5.79464 8.47756L6.49174 8.8479C8.62662 9.87177 10.8268 10.6342 10.8268 13.0959C10.8268 15.2307 9.2148 17.2131 6.05606 17.2131C4.11724 17.2131 3.07159 16.4942 1.56847 16.2546L0.980286 10.6996L1.13278 10.6778C2.02594 15.71 5.20646 16.4071 6.99279 16.4071C9.30193 16.4071 10.0426 15.2961 10.0426 14.0762C10.0426 12.0938 7.97308 11.266 6.01249 10.351L5.22825 9.9589C3.48549 9.1311 1.54668 8.30329 1.54668 5.88522C1.54668 3.40179 3.57263 2.09473 5.81643 2.09473C7.27598 2.09473 8.56126 2.63934 9.3455 3.35823L9.99904 2.11651H10.1515V7.60619H10.0208C9.17123 4.68707 7.49383 2.90075 4.8797 2.90075C3.37657 2.90075 2.24378 3.61964 2.24378 5.03563C2.24378 6.73481 3.96475 7.5844 5.79464 8.47756Z" fill="white"/>
<path d="M20.1712 15.2525L20.2583 15.405C18.973 16.4289 17.8185 17.1478 17.1867 17.1478C14.5072 17.1478 12.307 15.3179 12.307 11.6145C12.307 6.82195 15.9886 5.27525 16.9253 5.27525C19.2998 5.27525 20.1058 6.75659 20.1276 8.91325C20.1276 9.30537 18.7552 10.1767 18.4284 10.1767H13.4834V10.351C13.4834 13.8583 15.2697 16.0585 18.0145 16.0585C18.9512 16.0585 19.5176 15.6664 20.1712 15.2525ZM16.446 6.21198C15.2915 6.21198 13.6794 6.80016 13.5051 9.78463H18.7552C18.9295 7.27942 17.7749 6.21198 16.446 6.21198Z" fill="white"/>
<path d="M24.0963 16.2546L25.9915 16.7992V16.9299H20.8068V16.7992L22.7021 16.2546V1.33227L20.589 1.31049V1.17978L23.9656 0.417329H24.0963V16.2546Z" fill="white"/>
<path d="M35.6674 16.2546L37.5626 16.7992V16.9299H32.3561V16.7992L34.2514 16.2546V6.23377C32.7918 6.16842 30.6787 6.03771 29.6549 5.95057L29.6331 16.2546L32.1165 16.7992V16.9299H26.3436V16.7992L28.2607 16.2546V5.99414L26.3654 5.66737V5.53667H28.2389L28.1953 4.5128C28.0428 1.11443 31.158 0.286621 32.2037 0.286621C34.4039 0.286621 35.4931 1.13621 36.0159 2.02938L34.9049 3.92462L34.796 3.85927C34.9267 2.20365 33.38 1.07086 31.6373 1.07086C30.1124 1.07086 29.0013 2.02938 29.0013 3.33644C29.0013 4.36031 29.546 5.23169 29.6549 5.53667L35.6674 5.55845V16.2546Z" fill="white"/>
<path d="M45.87 15.2525L45.9571 15.405C44.6718 16.4289 43.5173 17.1478 42.8855 17.1478C40.206 17.1478 38.0058 15.3179 38.0058 11.6145C38.0058 6.82195 41.6874 5.27525 42.6241 5.27525C44.9986 5.27525 45.8046 6.75659 45.8264 8.91325C45.8264 9.30537 44.454 10.1767 44.1272 10.1767H39.1822V10.351C39.1822 13.8583 40.9685 16.0585 43.7133 16.0585C44.65 16.0585 45.2164 15.6664 45.87 15.2525ZM42.1448 6.21198C40.9903 6.21198 39.3782 6.80016 39.2039 9.78463H44.454C44.6283 7.27942 43.4737 6.21198 42.1448 6.21198Z" fill="white"/>
<path d="M56.1556 9.00039L56.1774 16.2546L58.0727 16.7992V16.9299H52.888V16.7992L54.7832 16.2546V9.02217C54.7832 7.23585 53.6722 6.45161 52.4958 6.45161C51.668 6.45161 50.8838 7.19228 50.2956 7.97652V16.2546L52.1909 16.7992V16.9299H46.9844V16.7992L48.8796 16.2546V6.49518L46.3962 7.8676L46.3309 7.75868C47.3112 6.90909 48.4222 5.31882 49.141 5.31882C49.4678 5.31882 49.8599 5.42775 50.2085 7.47548C51.4066 6.05949 52.5176 5.36239 52.9097 5.36239C54.6089 5.36239 56.1556 6.14663 56.1556 9.00039Z" fill="white"/>
<path d="M64.1798 15.2525L64.2669 15.3614C63.3084 16.3635 62.0013 17.1478 61.5874 17.1478C60.4546 17.1478 59.7575 16.3635 59.7575 14.8386L59.7358 5.99414L57.9494 5.66737V5.53667H59.7793L61.0864 3.09681H61.1735L61.13 5.53667H64.0926V6.27734C63.7223 6.27734 62.437 6.10306 61.13 5.97236V14.7733C61.13 15.6882 61.5439 16.1675 62.437 16.1675C62.9163 16.1675 63.3302 16.0368 64.1798 15.2525Z" fill="white"/>
</svg>
